<svg width="22" height="22" viewBox="0 0 22 22" fill="none" xmlns="http://www.w3.org/2000/svg">
<mask id="mask0_243_126" style="mask-type:alpha" maskUnits="userSpaceOnUse" x="0" y="0" width="22" height="22">
<rect width="22" height="22" fill="#D9D9D9"/>
</mask>
<g mask="url(#mask0_243_126)">
<path d="M10.9999 20.1668C9.38047 20.1668 8.05895 19.9109 7.03534 19.3991C6.01172 18.8873 5.49992 18.2266 5.49992 17.4168C5.49992 17.0502 5.61068 16.7102 5.83221 16.397C6.05374 16.0838 6.36311 15.8127 6.76034 15.5835L8.20409 16.9356C8.06659 16.9967 7.91763 17.0654 7.75721 17.1418C7.59679 17.2182 7.47075 17.3099 7.37909 17.4168C7.5777 17.6613 8.03603 17.8752 8.75409 18.0585C9.47214 18.2418 10.2208 18.3335 10.9999 18.3335C11.7791 18.3335 12.5315 18.2418 13.2572 18.0585C13.9829 17.8752 14.4451 17.6613 14.6437 17.4168C14.5367 17.2946 14.3992 17.1953 14.2312 17.1189C14.0631 17.0425 13.9027 16.9738 13.7499 16.9127L15.1708 15.5377C15.5985 15.7821 15.927 16.0609 16.1562 16.3741C16.3853 16.6873 16.4999 17.0349 16.4999 17.4168C16.4999 18.2266 15.9881 18.8873 14.9645 19.3991C13.9409 19.9109 12.6194 20.1668 10.9999 20.1668ZM10.9999 17.4168C8.84575 15.8279 7.23777 14.2849 6.17596 12.7877C5.11415 11.2904 4.58325 9.82377 4.58325 8.38766C4.58325 7.30294 4.77804 6.3519 5.16763 5.53454C5.55721 4.71718 6.05756 4.0335 6.66867 3.4835C7.27978 2.9335 7.96728 2.521 8.73117 2.246C9.49506 1.971 10.2513 1.8335 10.9999 1.8335C11.7485 1.8335 12.5048 1.971 13.2687 2.246C14.0326 2.521 14.7201 2.9335 15.3312 3.4835C15.9423 4.0335 16.4426 4.71718 16.8322 5.53454C17.2218 6.3519 17.4166 7.30294 17.4166 8.38766C17.4166 9.82377 16.8857 11.2904 15.8239 12.7877C14.7621 14.2849 13.1541 15.8279 10.9999 17.4168ZM10.9999 10.0835C11.5041 10.0835 11.9357 9.90398 12.2947 9.54495C12.6537 9.18593 12.8333 8.75433 12.8333 8.25016C12.8333 7.746 12.6537 7.3144 12.2947 6.95537C11.9357 6.59634 11.5041 6.41683 10.9999 6.41683C10.4958 6.41683 10.0642 6.59634 9.70513 6.95537C9.3461 7.3144 9.16659 7.746 9.16659 8.25016C9.16659 8.75433 9.3461 9.18593 9.70513 9.54495C10.0642 9.90398 10.4958 10.0835 10.9999 10.0835Z" fill="#F7931E"/>
</g>
</svg>
