<svg width="20" height="20" viewBox="0 0 20 20" fill="none" xmlns="http://www.w3.org/2000/svg">
<mask id="mask0_243_121" style="mask-type:alpha" maskUnits="userSpaceOnUse" x="0" y="0" width="20" height="20">
<rect width="20" height="20" fill="#D9D9D9"/>
</mask>
<g mask="url(#mask0_243_121)">
<path d="M3.33341 16.6666C2.87508 16.6666 2.48272 16.5034 2.15633 16.177C1.82994 15.8506 1.66675 15.4583 1.66675 14.9999V4.99992C1.66675 4.54159 1.82994 4.14922 2.15633 3.82284C2.48272 3.49645 2.87508 3.33325 3.33341 3.33325H16.6667C17.1251 3.33325 17.5174 3.49645 17.8438 3.82284C18.1702 4.14922 18.3334 4.54159 18.3334 4.99992V14.9999C18.3334 15.4583 18.1702 15.8506 17.8438 16.177C17.5174 16.5034 17.1251 16.6666 16.6667 16.6666H3.33341ZM10.0001 10.8333L16.6667 6.66659V4.99992L10.0001 9.16658L3.33341 4.99992V6.66659L10.0001 10.8333Z" fill="#F7931E"/>
</g>
</svg>
