<svg width="24" height="24" viewBox="0 0 24 24" fill="none" xmlns="http://www.w3.org/2000/svg">
<rect width="23.5104" height="23.5104" rx="6" fill="#F7931E"/>
<path d="M13.2494 4.2181C13.2743 4.12486 13.3174 4.03744 13.3761 3.96085C13.4349 3.88426 13.5081 3.81999 13.5917 3.77172C13.6753 3.72345 13.7676 3.69212 13.8633 3.67952C13.959 3.66692 14.0562 3.6733 14.1494 3.6983C15.5114 4.05366 16.7541 4.76567 17.7494 5.761C18.7447 6.75633 19.4568 7.99899 19.8121 9.361C19.8371 9.45422 19.8435 9.55146 19.8309 9.64716C19.8183 9.74285 19.787 9.83512 19.7387 9.9187C19.6904 10.0023 19.6262 10.0755 19.5496 10.1343C19.473 10.193 19.3856 10.2361 19.2923 10.261C19.2303 10.2773 19.1664 10.2857 19.1022 10.2858C18.9403 10.2858 18.7829 10.2323 18.6546 10.1337C18.5262 10.035 18.434 9.89673 18.3923 9.74029C18.1025 8.62843 17.5214 7.61398 16.7089 6.80151C15.8964 5.98903 14.882 5.40793 13.7701 5.1181C13.6768 5.09326 13.5893 5.05027 13.5126 4.99158C13.4359 4.93288 13.3715 4.85965 13.3232 4.77606C13.2748 4.69247 13.2434 4.60016 13.2307 4.50442C13.2181 4.40868 13.2244 4.31138 13.2494 4.2181ZM13.0354 8.05691C14.3019 8.39487 15.1155 9.20855 15.4535 10.475C15.4952 10.6314 15.5874 10.7697 15.7158 10.8684C15.8441 10.967 16.0015 11.0205 16.1634 11.0205C16.2276 11.0204 16.2915 11.012 16.3535 10.9957C16.4468 10.9708 16.5342 10.9277 16.6108 10.869C16.6874 10.8102 16.7516 10.737 16.7999 10.6534C16.8482 10.5698 16.8795 10.4775 16.8921 10.3819C16.9047 10.2862 16.8983 10.1889 16.8733 10.0957C16.4031 8.33609 15.1743 7.10731 13.4147 6.6371C13.2264 6.5868 13.0259 6.61336 12.8572 6.71092C12.6885 6.80849 12.5655 6.96908 12.5152 7.15736C12.4649 7.34563 12.4914 7.54618 12.589 7.71488C12.6866 7.88358 12.8471 8.00661 13.0354 8.05691ZM20.5606 16.8136C20.3968 18.058 19.7857 19.2003 18.8413 20.0271C17.8969 20.8538 16.6839 21.3086 15.4287 21.3063C8.13681 21.3063 2.20411 15.3736 2.20411 8.0817C2.20186 6.82655 2.65658 5.6135 3.48335 4.66911C4.31011 3.72472 5.45237 3.11357 6.6968 2.94982C7.01148 2.9114 7.33016 2.97578 7.60525 3.13335C7.88033 3.29092 8.09708 3.53323 8.22314 3.82411L10.1627 8.15425V8.16527C10.2593 8.38794 10.2991 8.63104 10.2788 8.87286C10.2584 9.11468 10.1785 9.3477 10.0461 9.5511C10.0296 9.5759 10.0121 9.59886 9.99377 9.62182L8.08171 11.8884C8.76957 13.2861 10.2316 14.7353 11.6478 15.425L13.8831 13.5231C13.905 13.5046 13.928 13.4874 13.952 13.4716C14.1552 13.3361 14.389 13.2534 14.6323 13.2309C14.8755 13.2085 15.1205 13.247 15.3451 13.3431L15.3571 13.3486L19.6835 15.2873C19.9749 15.4129 20.2178 15.6294 20.3759 15.9046C20.534 16.1797 20.5988 16.4986 20.5606 16.8136ZM19.1022 16.6299H19.0921L14.7757 14.6968L12.5395 16.5987C12.5179 16.6172 12.4952 16.6343 12.4715 16.6501C12.2601 16.7912 12.0157 16.875 11.7621 16.8934C11.5086 16.9117 11.2547 16.864 11.0251 16.7548C9.30499 15.9237 7.59038 14.222 6.75833 12.5202C6.64815 12.2923 6.59871 12.0398 6.6148 11.7872C6.63089 11.5346 6.71197 11.2904 6.85017 11.0784C6.86571 11.0534 6.88321 11.0298 6.90252 11.0076L8.81641 8.73834L6.88782 4.42198C6.88745 4.41831 6.88745 4.41462 6.88782 4.41096C5.99723 4.52713 5.17953 4.96397 4.58786 5.63966C3.99618 6.31536 3.6711 7.18357 3.67351 8.0817C3.67691 11.1983 4.9165 14.1863 7.12029 16.3901C9.32408 18.5939 12.3121 19.8335 15.4287 19.8369C16.3263 19.84 17.1943 19.516 17.8704 18.9257C18.5464 18.3353 18.9844 17.5188 19.1022 16.629V16.6299Z" fill="black"/>
</svg>
